<svg xmlns="http://www.w3.org/2000/svg" viewBox="0 0 420 96" role="img" aria-labelledby="title desc">
  <title id="title">Luke Mori Luxury horizontal logo</title>
  <desc id="desc">Horizontal Luke Mori Luxury logo with bronze LM mountain lake mark.</desc>
  <rect width="420" height="96" rx="48" fill="#0a0b0d"/>
  <g transform="translate(18 16)">
    <circle cx="32" cy="32" r="27.5" fill="none" stroke="#d4b896" stroke-width="1.35" opacity="0.9"/>
    <path d="M16.5 17.5v23h15.2" fill="none" stroke="#d4b896" stroke-width="2.4" stroke-linecap="square" stroke-linejoin="miter"/>
    <path d="M21.2 17.5v18.2h6.2V22.8l8.8 10.4 8.9-10.4v17.8" fill="none" stroke="#d4b896" stroke-width="2.4" stroke-linecap="square" stroke-linejoin="miter"/>
    <path d="M40.9 17.7h6.2v22.9" fill="none" stroke="#d4b896" stroke-width="2.4" stroke-linecap="square" stroke-linejoin="miter" opacity="0.92"/>
    <path d="M11.5 47.2l9.4-3.7 4.6 2.1 8.2-7.4 9.3 8.5 4.2-3.3 5.7 4.6" fill="none" stroke="#d4b896" stroke-width="1.8" stroke-linecap="round" stroke-linejoin="round"/>
    <path d="M11.8 51.2c8.2-1.9 18.3-2.3 25.5.2 3.1 1.1 3.2 2.6.3 3.3-3.5.8-7.5.4-10.8 1.4 5.9 1.3 13.2 1.3 24.9-.5" fill="none" stroke="#d4b896" stroke-width="1.6" stroke-linecap="round" opacity="0.92"/>
  </g>
  <text x="100" y="44" fill="#efeae2" font-family="Georgia, 'Times New Roman', serif" font-size="28" letter-spacing="0.04em">Luke Mori</text>
  <text x="102" y="66" fill="#d4b896" font-family="Arial, sans-serif" font-size="10" font-weight="600" letter-spacing="0.38em">LUXURY</text>
</svg>
